<?xml version="1.0" encoding="utf-8"?>
<!-- Generator: Adobe Illustrator 25.2.3, SVG Export Plug-In . SVG Version: 6.00 Build 0)  -->
<svg version="1.1" id="Capa_1" xmlns="http://www.w3.org/2000/svg" xmlns:xlink="http://www.w3.org/1999/xlink" x="0px" y="0px"
	 viewBox="0 0 200 50" style="enable-background:new 0 0 200 50;" xml:space="preserve">
<style type="text/css">
	.st0{fill:#FFFFFF;}
</style>
<g>
	<path class="st0" d="M156.8,22.8c0,4.2-3.8,7.5-7.9,7.5c-4.6,0-8.2-3.4-8.2-8V5h-4.6v17.3c0,7.1,5.5,12.5,12.6,12.5
		c3.4,0,5.7-1.1,7.9-3.5v3.5h4.6V5h-4.6L156.8,22.8L156.8,22.8z"/>
	<path class="st0" d="M185.1,5h-14.6v40h4.6V30.8c2.6,2.5,6.2,4,10.1,4c8.2,0,14.5-6.5,14.5-14.9S193.2,5,185.1,5z M185.1,30.3
		c-5.2,0-10.1-4.1-10.1-9.1V9.6h10.1c5.6,0,9.9,4.4,9.9,10.4S190.7,30.3,185.1,30.3z"/>
	<path class="st0" d="M82.4,15.2c-2.9,0-6,1.4-7.4,3v-3h-4.6V45H75V26.6c0-3.8,3.3-6.9,7.3-6.9c3.9,0,7.2,3.2,7.2,7.2V45H94V26.8
		C93.8,20.5,88.8,15.2,82.4,15.2z"/>
	<path class="st0" d="M123,19.2c-2.6-2.5-6.2-4-10.1-4c-8.2,0-14.5,6.5-14.5,14.9S104.8,45,113,45h14.6V5H123V19.2z M123,40.4h-10.1
		c-5.6,0-9.9-4.4-9.9-10.4s4.3-10.3,9.9-10.3c5.2,0,10.1,4.1,10.1,9.1V40.4z"/>
	<polygon class="st0" points="61.5,15.2 54.2,15.2 54.2,19.7 57,19.7 57,40.4 54.2,40.4 54.2,45 64.3,45 64.3,40.4 61.5,40.4 	"/>
	<rect x="136.2" y="40.4" class="st0" width="25.1" height="4.6"/>
	<polygon class="st0" points="35,39.7 24.5,15.2 19.6,15.2 22.7,22.6 15.4,39.7 5.2,15.2 0.3,15.2 12.8,45 17.8,45 25.2,28.2 
		32.5,45 37.5,45 50.1,15.2 45.2,15.2 	"/>
	<rect x="56.4" y="5" class="st0" width="5.7" height="5.7"/>
</g>
</svg>
