<svg xmlns="http://www.w3.org/2000/svg" viewBox="0 0 200 50"><path d="M156.8 22.8c0 4.2-3.8 7.5-7.9 7.5-4.6 0-8.2-3.4-8.2-8V5h-4.6v17.3c0 7.1 5.5 12.5 12.6 12.5 3.4 0 5.7-1.1 7.9-3.5v3.5h4.6V5h-4.6l.2 17.8zM185.1 5h-14.6v40h4.6V30.8c2.6 2.5 6.2 4 10.1 4 8.2 0 14.5-6.5 14.5-14.9S193.2 5 185.1 5zm0 25.3c-5.2 0-10.1-4.1-10.1-9.1V9.6h10.1c5.6 0 9.9 4.4 9.9 10.4s-4.3 10.3-9.9 10.3zM82.4 15.2c-2.9 0-6 1.4-7.4 3v-3h-4.6V45H75V26.6c0-3.8 3.3-6.9 7.3-6.9 3.9 0 7.2 3.2 7.2 7.2V45H94V26.8c-.2-6.3-5.2-11.6-11.6-11.6zm40.6 4c-2.6-2.5-6.2-4-10.1-4-8.2 0-14.5 6.5-14.5 14.9S104.8 45 113 45h14.6V5H123v14.2zm0 21.2h-10.1c-5.6 0-9.9-4.4-9.9-10.4s4.3-10.3 9.9-10.3c5.2 0 10.1 4.1 10.1 9.1v11.6zM61.5 15.2h-7.3v4.5H57v20.7h-2.8V45h10.1v-4.6h-2.8zm74.7 25.2h25.1V45h-25.1zM35 39.7L24.5 15.2h-4.9l3.1 7.4-7.3 17.1L5.2 15.2H.3L12.8 45h5l7.4-16.8L32.5 45h5l12.6-29.8h-4.9zM56.4 5h5.7v5.7h-5.7z" fill="#fff"/></svg>